<?xml version="1.0" standalone="no"?>
<!DOCTYPE svg PUBLIC "-//W3C//DTD SVG 20010904//EN"
 "http://www.w3.org/TR/2001/REC-SVG-20010904/DTD/svg10.dtd">
<svg version="1.0" xmlns="http://www.w3.org/2000/svg"
 width="1024.000000pt" height="1024.000000pt" viewBox="0 0 1024.000000 1024.000000"
 preserveAspectRatio="xMidYMid meet">
<metadata>
Created by potrace 1.11, written by Peter Selinger 2001-2013
</metadata>
<g transform="translate(0.000000,1024.000000) scale(0.100000,-0.100000)"
fill="#000000" stroke="none">
<path d="M3220 7620 l0 -100 45 0 c33 0 47 -5 54 -19 20 -37 63 -41 402 -41
l329 0 0 -2390 0 -2390 -415 0 -415 0 0 -100 0 -100 45 0 c33 0 47 -5 54 -19
6 -10 25 -24 42 -30 45 -16 2423 -16 2468 0 38 14 51 35 51 88 0 31 -7 47 -30
71 -20 20 -30 41 -30 60 l0 30 -390 0 -390 0 2 1045 3 1044 23 23 23 23 542 6
c424 4 572 9 682 23 644 79 1024 275 1285 661 175 259 250 592 207 915 -37
272 -125 465 -316 692 -278 330 -620 505 -1131 578 -178 25 -446 30 -1757 30
l-1383 0 0 -100z m2720 -170 c361 -25 521 -87 645 -252 132 -176 183 -373 192
-740 13 -505 -59 -805 -247 -1043 -115 -144 -243 -229 -407 -271 -189 -48
-307 -57 -708 -58 l-370 -1 -2 1150 c-3 1232 -5 1186 47 1212 31 16 631 18
850 3z"/>
</g>
</svg>
